<svg version="1" xmlns="http://www.w3.org/2000/svg" width="512" height="512" viewBox="0 0 384.000000 384.000000"><path d="M175.8 8.7c1.2.2 3 .2 4 0 .9-.3-.1-.5-2.3-.4-2.2 0-3 .2-1.7.4zM203.8 8.7c1.2.2 3.2.2 4.5 0 1.2-.2.2-.4-2.3-.4s-3.5.2-2.2.4zM166.8 9.7c.6.2 1.8.2 2.5 0 .6-.3.1-.5-1.3-.5-1.4 0-1.9.2-1.2.5zM214.3 9.7c.9.2 2.3.2 3 0 .6-.3-.1-.5-1.8-.5-1.6 0-2.2.2-1.2.5zM160.8 10.7c.7.3 1.6.2 1.9-.1.4-.3-.2-.6-1.3-.5-1.1 0-1.4.3-.6.6zM221.8 10.7c.7.3 1.6.2 1.9-.1.4-.3-.2-.6-1.3-.5-1.1 0-1.4.3-.6.6zM154.8 11.7c.7.3 1.6.2 1.9-.1.4-.3-.2-.6-1.3-.5-1.1 0-1.4.3-.6.6zM226.8 11.7c.6.2 1.8.2 2.5 0 .6-.3.1-.5-1.3-.5-1.4 0-1.9.2-1.2.5zM231.8 12.7c.7.3 1.6.2 1.9-.1.4-.3-.2-.6-1.3-.5-1.1 0-1.4.3-.6.6zM235.8 13.7c.7.3 1.6.2 1.9-.1.4-.3-.2-.6-1.3-.5-1.1 0-1.4.3-.6.6zM239.8 14.7c.7.3 1.6.2 1.9-.1.4-.3-.2-.6-1.3-.5-1.1 0-1.4.3-.6.6zM167.3 17.6C88.9 29 27.9 90.6 17.5 168.8c-7.3 54.6 11.4 109.2 50.6 148 26.2 25.9 57.5 42.1 94.4 48.8 13.9 2.5 44.9 2.5 59 0 75.9-13.7 133.8-72.9 145-148.4.8-5.3 1.5-12.1 1.6-15 .1-2.9.6-4.8 1-4.1.4.6 1.6.9 2.8.6 1.1-.3 2-.2 1.9.2-.1.3.2 1.3.5 2.1s.8 3.3 1 5.5c.2 2.2.4-3.6.5-12.9.2-19.2-1.3-32.2-5.9-49.4-6.5-24.6-18.4-48-34.9-68.6-10.4-12.9-31.1-31.4-42.5-38-2.9-1.7-2.9-1.7-.6 0 1.3 1 5.8 4.4 10 7.5 8.7 6.6 21.4 18.3 18.9 17.5-1.6-.5-1.9.9-.6 2.9.4.6.3 1.7-.2 2.5-.6 1-2.7-.5-8.7-5.9C289 41.7 257.6 25.5 229 19.6c-18.9-3.8-43.8-4.7-61.7-2zm39.8 7.4c34.3 3.5 64.9 16 90.4 37 14.9 12.3 20.2 19.6 17.5 23.9-.7 1.2-2.7-.3-9.1-6.8-24.7-24.7-56.4-40.6-91.1-45.7-15-2.2-40-1.5-54.3 1.5C111.2 45.4 71 76.4 48.3 121.5c-5.6 11.1-11.5 28.8-13.9 42-2.6 14-2.6 43 0 57C48.9 299 118.7 354.9 198 351.7c38.3-1.6 73.2-15.8 102-41.6 29.7-26.5 49.7-68 51.7-106.9.4-8.1.9-11.8 1.5-10.8.5.9 2 1.6 3.3 1.6 2.4 0 2.5.2 2.5 7.4 0 8.9-3 26.9-6.5 38.8-7.8 26.6-22.5 51-43 71.3-13.1 12.9-25.6 21.8-43 30.5-21.6 10.8-37.3 15.2-61.2 17.2-30.4 2.6-61.2-3.5-89.3-17.8-16.7-8.6-29.2-17.6-42.5-30.9C16.7 253.6 8.1 165.3 52.8 98.4 86.6 47.9 147.4 19 207.1 25zm-90.8 91.2c1.9 5.1 14.2 37.6 27.2 72.3 13.1 34.6 24.1 63.3 24.5 63.8.3.4 5.2-11.5 10.8-26.4l10.1-27.1-13.8-36.1c-7.7-19.9-14.2-37-14.6-38-.5-1.1-1.8-1.7-4-1.7-3.2 0-3.4.2-3.7 3.7l-.3 3.8-7.8-11.5-7.7-11.5 18.7-.3c12.1-.1 18.9.1 19.3.8.3.6 5.8 14.7 12.1 31.5s11.7 30.5 12 30.5c.3 0 4.5-10.6 9.3-23.4l8.8-23.5 13-7.1c7.1-4 13.1-7 13.4-6.8.2.3-7.2 20.4-16.6 44.7-9.3 24.4-17 44.7-17 45.2 0 1.1 18.7 50.6 19.9 52.7.4.7 10.9-25.8 25.1-63.6l24.4-64.9 12.1-6.6c6.7-3.7 12.4-6.7 12.7-6.7 1.4 0-3.3 12.5-5.7 15-1.4 1.4-2.5 3-2.5 3.5s.6 0 1.4-1.1c1.5-1.9 1.5-1.9 1.1.1-.2 1.1-.4 2.3-.4 2.7-.1.5-.7.8-1.4.8-.8 0-1.3.9-1.2 2.2.1 1.3-.2 2.9-.8 3.5-.5.7-.6 1.3-.2 1.3.4 0 .1.7-.6 1.7-.8.9-1.3 1.7-1.1 1.7.2.1.1 1.3-.3 2.8-.4 1.6-1.2 2.5-1.7 2.2-.6-.4-.7.2-.3 1.6.6 1.9.4 2.2-1.2 1.8-1.5-.4-2.2.2-3.1 2.4-.9 2.5-.9 2.8.4 1.7.8-.6 1.8-.9 2.1-.5.4.4.3 1-.2 1.4-.6.4-1.2 1.6-1.4 2.7-.1 1.1-10.9 29.7-23.8 63.5s-25.5 67-28.1 73.7c-2.5 6.8-4.9 11.7-5.3 11-.4-.6-7.3-18.7-15.4-40-8.2-21.3-15.1-38.4-15.5-38-.4.4-7.4 18.5-15.6 40-14 37-15 39.1-16.1 36.5-.7-1.5-15.7-40.5-33.4-86.7s-33-86.4-34.2-89.3c-2-5.2-2.1-5.3-5.6-5-3.1.3-3.7.7-4.1 3.2-.5 3-1.1 2.3-13.4-16.7l-1.8-2.7h37.9l3.6 9.2zM246.8 16.7c.7.3 1.6.2 1.9-.1.4-.3-.2-.6-1.3-.5-1.1 0-1.4.3-.6.6zM254 19c.8.5 2 1 2.5 1 .6 0 .3-.5-.5-1s-1.9-1-2.5-1c-.5 0-.3.5.5 1zM259 21c.8.5 2 1 2.5 1 .6 0 .3-.5-.5-1s-1.9-1-2.5-1c-.5 0-.3.5.5 1zM265 23.5c1.4.8 3 1.4 3.5 1.4.6 0-.1-.6-1.5-1.4-1.4-.8-2.9-1.4-3.5-1.4-.5 0 .1.6 1.5 1.4zM278 29.4c0 .3 1.4 1.2 3 2.1 1.7.9 3 1.3 3 1.1 0-.3-1.3-1.2-3-2.1-1.6-.9-3-1.3-3-1.1z"/><path d="M285 33.4c0 .3.9 1 2 1.6 1.1.6 2 .8 2 .6 0-.3-.9-1-2-1.6-1.1-.6-2-.8-2-.6zM79.9 45.7c-1.3 1.6-1.2 1.7.4.4.9-.7 1.7-1.5 1.7-1.7 0-.8-.8-.3-2.1 1.3zM66.9 56.7l-3.4 3.8 3.8-3.4c3.4-3.3 4.2-4.1 3.4-4.1-.2 0-1.9 1.7-3.8 3.7zM55.4 68.2l-2.9 3.3 3.3-2.9c3-2.8 3.7-3.6 2.9-3.6-.2 0-1.6 1.5-3.3 3.2zM9.1 167.6c0 1.1.3 1.4.6.6.3-.7.2-1.6-.1-1.9-.3-.4-.6.2-.5 1.3zM8.2 177.5c0 1.6.2 2.2.5 1.2.2-.9.2-2.3 0-3-.3-.6-.5.1-.5 1.8zM8.2 206.5c0 1.6.2 2.2.5 1.2.2-.9.2-2.3 0-3-.3-.6-.5.1-.5 1.8zM374.2 215c0 1.9.2 2.7.5 1.7.2-.9.2-2.5 0-3.5-.3-.9-.5-.1-.5 1.8zM9.1 216.6c0 1.1.3 1.4.6.6.3-.7.2-1.6-.1-1.9-.3-.4-.6.2-.5 1.3zM373.2 222c0 1.4.2 1.9.5 1.2.2-.6.2-1.8 0-2.5-.3-.6-.5-.1-.5 1.3zM372.2 227.5c0 1.6.2 2.2.5 1.2.2-.9.2-2.3 0-3-.3-.6-.5.1-.5 1.8zM371.1 232.6c0 1.1.3 1.4.6.6.3-.7.2-1.6-.1-1.9-.3-.4-.6.2-.5 1.3zM370.1 236.6c0 1.1.3 1.4.6.6.3-.7.2-1.6-.1-1.9-.3-.4-.6.2-.5 1.3zM369.1 240.6c0 1.1.3 1.4.6.6.3-.7.2-1.6-.1-1.9-.3-.4-.6.2-.5 1.3zM362.6 259.5c-.9 2.6-.7 3.2.5 1.2.6-1 .9-2.1.6-2.3-.2-.3-.7.2-1.1 1.1zM360.6 264.5c-.9 2.6-.7 3.2.5 1.2.6-1 .9-2.1.6-2.3-.2-.3-.7.2-1.1 1.1zM327.4 316.2l-1.9 2.3 2.3-1.9c1.2-1.1 2.2-2.1 2.2-2.3 0-.8-.8-.2-2.6 1.9zM314.9 328.7c-1.3 1.6-1.2 1.7.4.4.9-.7 1.7-1.5 1.7-1.7 0-.8-.8-.3-2.1 1.3z"/></svg>